<svg xmlns="http://www.w3.org/2000/svg" width="1272" height="512" viewBox="0 0 1272 512" fill="none" role="img" aria-label="Pdeefy">
  <!-- Mark (light: ink-outlined sheet) -->
  <path
    d="M120 56 L312 56 L424 168 L424 432 A32 32 0 0 1 392 464 L120 464 A32 32 0 0 1 88 432 L88 88 A32 32 0 0 1 120 56 Z"
    fill="#fbfcfd"
    stroke="#2b2d42"
    stroke-width="16"
    stroke-linejoin="round"
  />
  <path d="M312 56 L312 168 L424 168 Z" fill="#d2d6df" />
  <path
    d="M312 56 L312 168 L424 168"
    fill="none"
    stroke="#2b2d42"
    stroke-width="16"
    stroke-linejoin="round"
    stroke-linecap="round"
  />
  <g stroke="#8d99ae" stroke-width="18" stroke-linecap="round" opacity="0.6">
    <line x1="140" y1="226" x2="280" y2="226" />
    <line x1="140" y1="266" x2="356" y2="266" />
  </g>
  <rect x="64" y="332" width="208" height="96" rx="22" fill="#ef233c" />
  <g transform="translate(87.26 399.71) scale(0.05476 -0.05476)"><path d="M50 0V720H392Q472 720 529.5 692.0Q587 664 618.5 614.0Q650 564 650 497Q650 430 618.0 379.0Q586 328 528.5 299.5Q471 271 392 271H172V389H384Q437 389 466.5 418.5Q496 448 496 496Q496 544 466.5 573.0Q437 602 384 602H204V0ZM876 0V120H1058Q1136 120 1190.5 151.5Q1245 183 1273.5 238.0Q1302 293 1302 364Q1302 434 1274.0 487.0Q1246 540 1191.5 570.0Q1137 600 1058 600H879V720H1058Q1179 720 1269.0 676.5Q1359 633 1408.5 552.5Q1458 472 1458 362Q1458 252 1408.0 170.5Q1358 89 1268.5 44.5Q1179 0 1059 0ZM782 0V720H936V0ZM1598 0V720H1752V0ZM1670 279V397H2083V279ZM1670 602V720H2106V602ZM2477 0V291L2209 720H2394L2606 339H2519L2730 720H2899L2631 291V0Z" fill="#fbfcfd"/></g>

  <!-- Wordmark: P, d, f in punch-red; Instrument Sans Bold — see scripts/outline_wordmark.py -->
  <g transform="translate(458 336) scale(0.23889 -0.23889)"><path d="M50.0 0V720H392.0Q472.0 720 529.5 692.0Q587.0 664 618.5 614.0Q650.0 564 650.0 497Q650.0 430 618.0 379.0Q586.0 328 528.5 299.5Q471.0 271 392.0 271H172.0V389H384.0Q437.0 389 466.5 418.5Q496.0 448 496.0 496Q496.0 544 466.5 573.0Q437.0 602 384.0 602H204.0V0Z" fill="#ef233c"/><path d="M1063.0 0V113L1073.0 111Q1063.0 56 1013.5 23.0Q964.0 -10 895.0 -10Q825.0 -10 773.5 22.5Q722.0 55 694.0 114.0Q666.0 173 666.0 253Q666.0 334 695.0 394.0Q724.0 454 776.5 487.0Q829.0 520 899.0 520Q972.0 520 1017.5 486.0Q1063.0 452 1071.0 393L1060.0 392V720H1210.0V0ZM943.0 110Q996.0 110 1029.0 147.5Q1062.0 185 1062.0 255Q1062.0 325 1028.5 362.5Q995.0 400 941.0 400Q889.0 400 855.5 362.0Q822.0 324 822.0 254Q822.0 184 855.5 147.0Q889.0 110 943.0 110Z" fill="#ef233c"/><path d="M1524.0 -10Q1439.0 -10 1376.0 23.5Q1313.0 57 1278.5 117.0Q1244.0 177 1244.0 255Q1244.0 334 1278.5 393.5Q1313.0 453 1375.0 486.5Q1437.0 520 1519.0 520Q1598.0 520 1656.0 488.0Q1714.0 456 1746.0 399.0Q1778.0 342 1778.0 265Q1778.0 249 1777.0 235.5Q1776.0 222 1774.0 210H1332.0V309H1653.0L1627.0 291Q1627.0 353 1597.5 382.5Q1568.0 412 1517.0 412Q1458.0 412 1425.5 372.0Q1393.0 332 1393.0 252Q1393.0 174 1425.5 136.0Q1458.0 98 1523.0 98Q1559.0 98 1585.0 110.0Q1611.0 122 1624.0 149H1765.0Q1740.0 75 1679.5 32.5Q1619.0 -10 1524.0 -10Z" fill="#2b2d42"/><path d="M2092.0 -10Q2007.0 -10 1944.0 23.5Q1881.0 57 1846.5 117.0Q1812.0 177 1812.0 255Q1812.0 334 1846.5 393.5Q1881.0 453 1943.0 486.5Q2005.0 520 2087.0 520Q2166.0 520 2224.0 488.0Q2282.0 456 2314.0 399.0Q2346.0 342 2346.0 265Q2346.0 249 2345.0 235.5Q2344.0 222 2342.0 210H1900.0V309H2221.0L2195.0 291Q2195.0 353 2165.5 382.5Q2136.0 412 2085.0 412Q2026.0 412 1993.5 372.0Q1961.0 332 1961.0 252Q1961.0 174 1993.5 136.0Q2026.0 98 2091.0 98Q2127.0 98 2153.0 110.0Q2179.0 122 2192.0 149H2333.0Q2308.0 75 2247.5 32.5Q2187.0 -10 2092.0 -10Z" fill="#2b2d42"/><path d="M2465.0 0V544Q2465.0 636 2515.0 683.0Q2565.0 730 2663.0 730Q2684.0 730 2699.5 728.0Q2715.0 726 2730.0 721V606Q2723.0 609 2713.0 610.5Q2703.0 612 2689.0 612Q2651.0 612 2633.0 594.0Q2615.0 576 2615.0 542V0ZM2380.0 396V510H2719.0V396Z" fill="#ef233c"/><path d="M2852.0 -205 2993.0 107 3019.0 150 3151.0 510H3311.0L3002.0 -205ZM2960.0 10 2764.0 510H2926.0L3087.0 54Z" fill="#2b2d42"/></g>
</svg>
